<svg id="Layer_1" data-name="Layer 1" xmlns="http://www.w3.org/2000/svg" viewBox="0 0 500 500"><defs><style>.cls-1{fill:#f4f5f0;}.cls-2,.cls-4{fill:#a67c52;}.cls-3,.cls-6{fill:none;}.cls-10,.cls-3,.cls-4,.cls-5,.cls-6,.cls-7,.cls-8{stroke:#000;}.cls-10,.cls-3,.cls-4,.cls-5,.cls-6,.cls-7,.cls-8,.cls-9{stroke-miterlimit:10;stroke-width:2px;}.cls-6,.cls-7,.cls-9{stroke-linecap:round;}.cls-7,.cls-8{fill:#b61c50;}.cls-9{fill:#f9ac2f;stroke:#223a5e;}.cls-10{fill:#1a1a1a;}</style></defs><title>Artboard 4</title><rect class="cls-1" width="500" height="500"/><rect class="cls-2" x="169.62" y="192.91" width="158.33" height="138.05" rx="19.84" ry="19.84"/><rect class="cls-3" x="169.62" y="192.91" width="158.33" height="138.05" rx="19.84" ry="19.84"/><rect class="cls-4" x="198.41" y="330.96" width="100.75" height="20.28"/><circle class="cls-5" cx="222.54" cy="253.43" r="9.16"/><circle class="cls-5" cx="275.02" cy="253.43" r="9.16"/><path class="cls-6" d="M275,287.45s-7.67,10.9-26.37,10.9-26.11-10.9-26.11-10.9"/><path class="cls-7" d="M145.26,367.17s-20.94,3.59-26.61,17.55-41.87,82.43-41.87,82.43L70.8,501c.41-2.74,66.6,0,66.6,0l23.42-133.83Z"/><path class="cls-8" d="M335.09,356.36s-1.31-5.12-5.23-5.12H167.71c-3.93,0-5.23,5.12-5.23,5.12L137.4,501H359.7Z"/><path class="cls-7" d="M352.54,367.17s20.94,3.59,26.61,17.55S421,467.15,421,467.15L427.2,501c-.41-2.74-67.5,0-67.5,0L337,367.17Z"/><path class="cls-9" d="M284.85,192.42V171.36a8.9,8.9,0,0,0-8.88-8.88H221.59a8.9,8.9,0,0,0-8.88,8.88v21.06Z"/><path class="cls-10" d="M172.75,283.75c-.78-.67-1.89-1.46-3-1.17a3,3,0,0,0-1.74,2c-1,2.45-10.47-28.25-10.44-44.05,0-3.09.26-6.15.54-9.22.12-1.3.34-2.84-.49-4-1.06-1.43-3.11-2.23-4.63-3l-9.55-5-2.07-1.08c-.14-.07-.56-.4-.72-.37s-.08,0-.1-.05c.16,1.48-1.36-21.38-1.52-27.06a21.6,21.6,0,0,1-.07-2.45,16.75,16.75,0,0,1,.47-2.13l1.2-5.3a37.56,37.56,0,0,0,.9-3.95,2,2,0,0,0-.23-1l-1.17-3.11-3.76-10-3.25-8.59a5.21,5.21,0,0,1-.5-1.33,4.66,4.66,0,0,1,.42-1.25l.84-2.5.81-2.42c.05-.15.16-.74.29-.81s.75.16.9.2l2,.44,9.67,2.1a3.76,3.76,0,0,0,1.61,0l5-.71,6.44-.92,5.33-.73c.49-.07,1.88,0,2.07-.44a3.59,3.59,0,0,0,0-1.1V132.15a26.46,26.46,0,0,1,0-3.31,5,5,0,0,1,.81-1.68l2.6-4.62a16.21,16.21,0,0,0,1.35-2.42,20.84,20.84,0,0,0,.54-2.94l1.85-10a3.81,3.81,0,0,1,.22-1.18c.11-.15.13-.09.36-.17a36.22,36.22,0,0,1,4.36-.78,32.44,32.44,0,0,1,6.87-1l5.2.21c.81,0,1.06-.12,1.48.51l5,7.53,5,7.43c.41.61.77.41,1.53.41h5.2c.91,0,.89.14,1.1-.7l1-3.89,2.51-10.2a9,9,0,0,1,.52-2.1,8.57,8.57,0,0,1,1.44-1.44l7.38-7.34c1.33-1.32,2.73-2.6,4-4,1.63-1.8,3.16-3.72,4.74-5.57l7-8.19L242,74.31a1.21,1.21,0,0,1,.83-.52l8.74-2.45,5.08-1.42c1-.29,2.11-.7,3.18-.89a2.27,2.27,0,0,1,1.2.2l4,1.24,9.8,3c.45.14,1.2.22,1.48.57a5.39,5.39,0,0,1,.47,1.34l.81,2.29,1.76,5a5.63,5.63,0,0,0,.8,1.88c1.95,2.27,4.39,4.11,6.34,6.38a6.07,6.07,0,0,1,.8,1.51L289.42,97l3.13,6.83,3.68-4.66,2.67-3.38a18.44,18.44,0,0,0,1.53-1.93,16.3,16.3,0,0,0,1-2.65c.1-.29.16-.7.4-.8a5.66,5.66,0,0,1,1.83.12c.6,0,1.3-.09,1.73.31a11.86,11.86,0,0,1,1.21,1.64l9.79,13.24,1.64,2.21a3.27,3.27,0,0,1,.53.73,6,6,0,0,1,0,1.53l.07,3.36.18,8.83.08,3.83a8.31,8.31,0,0,0,0,2.17c.11.33.05.24.52.24l2.82,0,8.69.11,3.47,0a5.34,5.34,0,0,1,1.31,0,5.58,5.58,0,0,1,1.08.66l1.86,1.13c.45.28,1.67.75,1.88,1.22a7.35,7.35,0,0,1,0,2.25v4.16c0,2.44-.07,4.9,0,7.34,0,.55.09.45.64.66l3.64,1.35,3.79,1.41c.41.15.85.2,1,.54a8.65,8.65,0,0,1,.39,2.19l.69,3.85,1.5,8.38c.19,1.07.14,2.27.9,3.08l5.21,5.48,2.82,3,1,1c.12.13.47.38.53.55s-.1.47-.18.69l-.83,2.29-5.73,15.77c-1,2.65-1.9,5.29-2.79,8l-2.75,8.25c-.62,1.85-1.13,3.79-1.86,5.59a25.09,25.09,0,0,1-1.48,2.69l-4,7.21L339,234.79a14.55,14.55,0,0,0-1.59,2.9,9.67,9.67,0,0,0-.13,1.69l-.25,3.4-.66,8.91-.47,6.28a7.71,7.71,0,0,1-.88,2.4l-6.58,15.09L326.85,279l-1.93-15.21L322.28,243a12,12,0,0,0-.73-3.09l-3.85-10.06c-1-2.57-1.86-5.22-3-7.75s-2.55-4.86-3.81-7.26l-1.25-2.37a7.13,7.13,0,0,1-.76-1.44c-.13-.56.57-1.28.87-1.78l5.58-9.16.44-.73-11.45-.75-17.79-1.16a22.58,22.58,0,0,0-3.52-.23,19.72,19.72,0,0,0-3,.8l-16.86,4.53-8.39,2.26c-1.59.43-3.19,1-4.8,1.29a7.73,7.73,0,0,1-2.89-.48l-8.74-1.89c-3.37-.73-6.73-1.47-10.11-2.17L211.19,198c-3-.62-5.87-1.06-8.87-1.47l-16.77-2.29-1.19-.16,1.44,9.87a27.82,27.82,0,0,1-.32,6.85c-.36,3.63-.69,7.27-1.09,10.89-.28,2.59-.9,5.18-1.37,7.75-1,5.35-2,10.63-3.21,15.95l-2.74,12.51a51.63,51.63,0,0,0-1.18,5.52c-.37,3.5-.44,7.07-.66,10.58l-.32,5.15a4.52,4.52,0,0,1-.06.94,9.83,9.83,0,0,1-1,1.77Z"/></svg>